<?xml version="1.0" standalone="no"?>
<!DOCTYPE svg PUBLIC "-//W3C//DTD SVG 20010904//EN"
 "http://www.w3.org/TR/2001/REC-SVG-20010904/DTD/svg10.dtd">
<svg version="1.0" xmlns="http://www.w3.org/2000/svg"
 width="700.000000pt" height="700.000000pt" viewBox="0 0 700.000000 700.000000"
 preserveAspectRatio="xMidYMid meet">
<metadata>
Created by potrace 1.11, written by Peter Selinger 2001-2013
</metadata>
<g transform="translate(0.000000,700.000000) scale(0.100000,-0.100000)"
fill="#000000" stroke="none">
<path d="M3450 6967 c-19 -18 -57 -50 -85 -72 -27 -21 -52 -42 -55 -45 -22
-25 -274 -201 -396 -277 -113 -71 -438 -243 -458 -243 -3 0 -29 -11 -58 -24
-140 -63 -377 -143 -563 -190 -134 -33 -347 -72 -445 -81 -25 -3 -63 -7 -85
-10 -106 -13 -226 -18 -525 -19 l-325 -2 0 -1199 c0 -1055 3 -1268 19 -1425 9
-83 18 -157 22 -185 3 -16 7 -45 10 -64 7 -59 16 -104 45 -229 11 -52 22 -99
23 -105 18 -86 95 -314 153 -452 116 -275 255 -504 466 -764 67 -82 65 -80
199 -217 172 -176 297 -286 503 -441 204 -153 544 -371 760 -488 39 -20 75
-41 80 -45 41 -30 733 -380 753 -380 18 0 578 283 772 391 446 248 798 485
1085 732 71 61 324 312 380 377 337 388 560 817 684 1315 32 127 66 310 77
410 3 33 8 62 9 65 2 3 6 50 10 105 5 55 10 118 12 140 6 62 10 2455 3 2456
-3 1 -144 3 -315 4 -341 2 -440 7 -620 30 -16 2 -52 7 -80 10 -27 3 -61 8 -75
11 -14 3 -36 8 -50 10 -175 30 -515 122 -625 169 -16 7 -73 30 -125 50 -98 40
-297 134 -385 182 -130 72 -180 103 -315 194 -80 53 -173 119 -206 146 -34 26
-78 61 -99 78 -21 16 -54 44 -74 62 -59 54 -63 55 -101 20z m117 -854 c13 -9
32 -30 41 -47 15 -28 17 -108 17 -914 1 -664 4 -885 12 -890 10 -6 171 -8 219
-3 7 1 10 80 10 259 -2 274 3 328 31 367 37 50 68 56 279 57 l195 1 29 61 c78
162 233 263 413 270 205 8 393 -122 464 -322 27 -74 24 -240 -6 -315 -49 -124
-174 -245 -294 -283 -68 -22 -199 -27 -264 -10 -143 38 -262 141 -324 282
l-20 44 -115 -1 -114 -2 0 -288 c0 -158 -4 -299 -9 -312 -8 -19 -35 -53 -64
-79 -1 -1 -101 -4 -222 -7 l-219 -6 -1 -150 c0 -82 1 -155 2 -160 2 -7 145
-10 410 -10 l407 0 33 66 c83 164 237 260 418 262 85 1 179 -22 227 -55 14
-10 30 -18 35 -18 17 0 112 -97 142 -145 66 -105 90 -266 55 -380 -64 -213
-257 -350 -476 -339 -126 6 -236 58 -324 151 -36 40 -85 121 -98 166 -5 16
-31 17 -418 15 l-413 -3 1 -160 0 -160 204 -1 c319 -1 304 18 308 -386 l3
-297 82 -3 c148 -6 147 -6 184 70 92 191 308 295 521 252 173 -36 323 -183
362 -356 66 -290 -155 -576 -445 -577 -103 -1 -146 8 -225 46 -87 42 -176 132
-215 217 -16 36 -31 67 -33 70 -1 2 -95 4 -207 5 -189 0 -206 2 -231 21 -69
51 -67 43 -68 369 l0 296 -120 -3 -120 -3 -1 -895 c0 -846 -1 -897 -18 -923
-10 -16 -32 -37 -50 -48 -56 -35 -100 -23 -317 86 -231 116 -391 199 -442 232
-21 12 -40 23 -42 23 -9 0 -255 155 -361 228 -250 171 -523 417 -672 604 -230
289 -394 640 -467 1001 -25 118 -36 190 -42 257 -3 36 -8 76 -12 90 -3 14 -7
446 -9 960 -4 902 -3 936 15 970 11 19 34 45 51 57 31 21 41 22 314 23 324 2
358 3 517 25 278 37 624 161 873 314 118 72 296 204 379 280 50 45 74 61 106
72 34 10 88 2 119 -18z"/>
<path d="M3290 5666 c-171 -131 -410 -256 -680 -357 -103 -38 -353 -99 -470
-114 -30 -4 -63 -9 -73 -11 -56 -10 -197 -17 -382 -19 -115 -2 -212 -3 -215
-4 -8 -1 -4 -1615 3 -1676 4 -27 9 -76 12 -108 4 -32 8 -68 11 -80 2 -11 6
-39 9 -62 16 -112 85 -356 132 -470 242 -581 710 -1010 1587 -1456 65 -33 120
-58 123 -55 6 5 7 4446 1 4451 -2 2 -28 -16 -58 -39z"/>
<path d="M4756 4986 c-108 -40 -157 -166 -105 -272 53 -111 196 -143 296 -67
34 26 70 91 74 133 8 76 -38 162 -103 196 -43 22 -116 27 -162 10z"/>
<path d="M4830 3697 c-61 -32 -84 -54 -106 -101 -53 -114 11 -248 131 -273 45
-10 46 -10 95 0 42 8 104 57 125 97 52 100 4 232 -100 276 -43 18 -112 18
-145 1z"/>
<path d="M4745 2403 c-80 -42 -119 -109 -113 -193 13 -183 250 -249 354 -98
48 69 45 174 -8 234 -61 69 -163 94 -233 57z"/>
</g>
</svg>
