<?xml version="1.0" encoding="utf-8"?>
<svg viewBox="-26 0 408 408" xmlns="http://www.w3.org/2000/svg">
	<style>
		.c1 { fill: #222; }
		.c2 { fill: #B14; }
	</style>
	<g>
		<path class="c1" d="m177.347656 0c-42.808594 37.960938-94.453125 57.984375-149.765625 57.984375h-27.234375v124.792969c0 56.09375 14.089844 99.058594 44.910156 135.207031 26.023438 30.523437 62.8125 56.132813 123.632813 85.625l8.394531 4.085937 8.359375-4.085937c60.824219-29.5 97.753907-55.097656 123.773438-85.621094 30.824219-36.152343 44.929687-79.117187 44.929687-135.210937v-124.792969h-27.242187c-55.304688 0-106.957031-20.027344-149.757813-57.984375zm30.375 229.984375c4.417969 0 7.625 4.214844 7.625 8.632813v31.367187h13.578125c1.359375-4.25 3.710938-8.109375 6.863281-11.265625 7.890626-7.972656 19.8125-10.394531 30.183594-6.128906 10.375 4.261718 17.148438 14.367187 17.148438 25.585937 0 11.214844-6.773438 21.320313-17.148438 25.585938-10.371094 4.265625-22.292968 1.84375-30.183594-6.132813-3.164062-3.292968-5.515624-7.28125-6.863281-11.644531h-21.199219c-4.417968 0-8.375-3.191406-8.375-7.613281v-32.386719h-14.003906v102.007813c.007813 2.820312-1.398437 5.460937-3.75 7.027343-1.265625.808594-2.734375 1.242188-4.238281 1.253907-1.203125.007812-2.390625-.261719-3.472656-.785157l-8.070313-3.917969c-75.648437-36.6875-122.46875-76.617187-122.46875-162.242187v-89.78125c0-4.417969 3.449219-8.5625 7.867188-8.5625h24.300781c35.519531 0 68.65625-13.078125 95.832031-38.390625l.546875-.273438c2.351563-2.128906 5.734375-2.679687 8.640625-1.40625 2.90625 1.277344 4.789063 4.140626 4.8125 7.3125v101.757813h14v-31.851563c.164063-4.519531 3.855469-8.109374 8.375-8.148437h21.203125c1.351563-4.285156 3.703125-8.183594 6.859375-11.378906 7.882813-7.933594 19.765625-10.324219 30.101563-6.066407 10.335937 4.261719 17.078125 14.339844 17.078125 25.519532 0 11.179687-6.742188 21.253906-17.078125 25.515625-10.335938 4.261719-22.21875 1.867187-30.101563-6.0625-3.160156-3.25-5.507812-7.199219-6.859375-11.527344h-13.578125v31.90625c0 4.417969-3.207031 8.09375-7.625 8.09375h-22.375v19h47.964844c1.355469-4.265625 3.707031-8.148437 6.863281-11.324219 10.78125-10.695312 28.1875-10.648437 38.914063.101563 6.960937 6.945312 9.683594 17.082031 7.132812 26.582031-2.550781 9.496094-9.980468 16.910156-19.488281 19.433594-9.503906 2.523437-19.632813-.226563-26.558594-7.207032-3.164062-3.273437-5.515625-7.242187-6.863281-11.585937h-47.964844v19zm0 0"/>
		<path class="c2" d="m75.515625 106.984375h-16.167969v82.34375c0 76.394531 40.246094 111.859375 110.058594 146.203125l-.027344-260.339844c-26.878906 20.742188-59.910156 31.929688-93.863281 31.792969zm0 0"/>
		<path class="c2" d="m263.390625 136.277344c4.496094-4.496094 4.496094-11.789063 0-16.285156-4.5-4.496094-11.789063-4.496094-16.285156 0-4.5 4.496093-4.5 11.789062-.003907 16.285156 2.152344 2.175781 5.085938 3.402344 8.144532 3.402344 3.0625 0 5.992187-1.226563 8.144531-3.402344zm0 0"/>
		<path class="c2" d="m251.488281 211.398438c4.5 4.496093 11.789063 4.496093 16.289063 0 4.496094-4.5 4.496094-11.789063 0-16.289063-4.5-4.496094-11.789063-4.496094-16.289063 0-2.175781 2.152344-3.40625 5.082031-3.40625 8.144531s1.230469 5.992188 3.40625 8.144532zm0 0"/>
		<path class="c2" d="m263.390625 286.515625c4.496094-4.496094 4.496094-11.789063 0-16.285156-4.5-4.496094-11.789063-4.496094-16.285156 0-4.5 4.496093-4.5 11.789062-.003907 16.285156 2.152344 2.179687 5.085938 3.40625 8.144532 3.40625 3.0625 0 5.996094-1.226563 8.144531-3.40625zm0 0"/>
	</g>
</svg>